Coordinates
version=1
nRows=11
nColumns=40
inDegrees=yes

Units are S.I. units (second, meters, Newtons, ...)
If the header above contains a line with 'inDegrees', this indicates whether rotational values are in degrees (yes) or radians (no).

endheader
time	pelvis_tilt	pelvis_list	pelvis_rotation	pelvis_tx	pelvis_ty	pelvis_tz	hip_flexion_r	hip_adduction_r	hip_rotation_r	knee_angle_r	knee_angle_r_beta	ankle_angle_r	subtalar_angle_r	mtp_angle_r	hip_flexion_l	hip_adduction_l	hip_rotation_l	knee_angle_l	knee_angle_l_beta	ankle_angle_l	subtalar_angle_l	mtp_angle_l	lumbar_extension	lumbar_bending	lumbar_rotation	arm_flex_r	arm_add_r	arm_rot_r	elbow_flex_r	pro_sup_r	wrist_flex_r	wrist_dev_r	arm_flex_l	arm_add_l	arm_rot_l	elbow_flex_l	pro_sup_l	wrist_flex_l	wrist_dev_l
      1.75500000	    -33.87515903	      5.73499760	     -4.45889427	     -0.34920193	      0.60895192	     -0.91530884	    107.21647091	    -22.14653934	     13.08804753	    104.75087638	      1.82824769	     31.86217917	      0.00000000	      0.00000000	    103.32543758	    -30.67130445	     -0.68740980	    106.39259250	      1.85690104	     38.36458238	      0.00000000	      0.00000000	    -17.81838962	     -6.56538250	      1.89478924	     16.39332171	    -53.11263302	     89.32526066	     88.71595991	     88.60638723	      0.00000000	      0.00000000	     17.28759205	    -58.83808825	     89.33593618	     96.33373118	     88.30171483	      0.00000000	      0.00000000
      1.76000000	    -33.93071465	      5.73603798	     -4.26224395	     -0.34861184	      0.60888966	     -0.91570955	    107.26859925	    -22.37269561	     13.14927966	    104.80240482	      1.82914703	     31.97301822	      0.00000000	      0.00000000	    103.30288339	    -30.42455725	     -0.74480119	    106.36980987	      1.85650341	     38.44980221	      0.00000000	      0.00000000	    -17.71845918	     -6.50018769	      1.68687739	     16.37161382	    -53.14552314	     89.32012815	     88.73214320	     88.57899660	      0.00000000	      0.00000000	     17.21959828	    -58.79973277	     89.33359654	     96.30603618	     88.36368537	      0.00000000	      0.00000000
      1.76500000	    -33.93289527	      5.70330295	     -4.34374051	     -0.34822470	      0.60907107	     -0.91525968	    107.16880809	    -22.23993768	     13.08491770	    104.79263109	      1.82897644	     32.05142416	      0.00000000	      0.00000000	    103.29461162	    -30.52889473	     -0.67150226	    106.35126135	      1.85617967	     38.42830947	      0.00000000	      0.00000000	    -17.66363115	     -6.51996691	      1.75497318	     16.38187896	    -53.10185023	     89.31265831	     88.63489833	     88.56448966	      0.00000000	      0.00000000	     17.22970161	    -58.79028869	     89.35481114	     96.25035831	     88.25551002	      0.00000000	      0.00000000
      1.77000000	    -33.92364057	      5.74458559	     -4.31042590	     -0.34771446	      0.60923976	     -0.91523651	    107.15231207	    -22.25793575	     13.15206940	    104.81919809	      1.82944013	     32.04111196	      0.00000000	      0.00000000	    103.18483929	    -30.50118635	     -0.75691411	    106.35498455	      1.85624466	     38.49550967	      0.00000000	      0.00000000	    -17.64171699	     -6.56500332	      1.66408298	     16.42956725	    -53.10201376	     89.31667746	     88.66506186	     88.57819198	      0.00000000	      0.00000000	     17.17560086	    -58.79388775	     89.33572847	     96.25168832	     88.37553201	      0.00000000	      0.00000000
      1.77500000	    -33.91938767	      5.66534713	     -4.35954076	     -0.34726941	      0.60941996	     -0.91485515	    107.02707414	    -22.18589316	     13.03013018	    104.82380284	      1.82952049	     32.11630869	      0.00000000	      0.00000000	    103.19877040	    -30.54058559	     -0.61227033	    106.34232676	      1.85602374	     38.49903660	      0.00000000	      0.00000000	    -17.58162805	     -6.51868864	      1.73377908	     16.39595422	    -53.10758736	     89.30750104	     88.65631329	     88.56597306	      0.00000000	      0.00000000	     17.18035073	    -58.75632779	     89.35286303	     96.16397786	     88.24989576	      0.00000000	      0.00000000
      1.78000000	    -33.93726246	      5.68526107	     -4.36235667	     -0.34698351	      0.60974748	     -0.91472796	    107.01507193	    -22.15666483	     13.03594093	    104.80604766	      1.82921061	     31.93400140	      0.00000000	      0.00000000	    103.12093069	    -30.53688595	     -0.67898621	    106.29198238	      1.85514506	     38.56486795	      0.00000000	      0.00000000	    -17.52850020	     -6.55685750	      1.70791853	     16.44650226	    -53.10543065	     89.30830762	     88.66039663	     88.57037989	      0.00000000	      0.00000000	     17.19938384	    -58.73132258	     89.35580510	     96.10219319	     88.25159590	      0.00000000	      0.00000000
      1.78500000	    -33.98474108	      5.57758482	     -3.97024102	     -0.34640513	      0.60989414	     -0.91560052	    106.99028378	    -22.61788670	     13.05490658	    104.85786650	      1.83011502	     32.18025254	      0.00000000	      0.00000000	    103.13898700	    -30.00622424	     -0.62462432	    106.23291564	      1.85411415	     38.41386422	      0.00000000	      0.00000000	    -17.46523166	     -6.30611194	      1.34264269	     16.44584561	    -53.18151144	     89.29675207	     88.67858477	     88.60013521	      0.00000000	      0.00000000	     17.10700612	    -58.64293304	     89.32374307	     96.06082300	     88.34617675	      0.00000000	      0.00000000
      1.79000000	    -34.00692645	      5.60592794	     -4.16909559	     -0.34605640	      0.61020681	     -0.91480254	    106.93858441	    -22.32538881	     13.00901306	    104.82484561	      1.82953869	     32.01208662	      0.00000000	      0.00000000	    103.09104783	    -30.25779485	     -0.61537173	    106.19754594	      1.85349683	     38.53587199	      0.00000000	      0.00000000	    -17.36709613	     -6.43136025	      1.48601918	     16.49692171	    -53.09561785	     89.31230142	     88.59652478	     88.58474359	      0.00000000	      0.00000000	     17.07735168	    -58.66345452	     89.32286669	     95.97397542	     88.23912142	      0.00000000	      0.00000000
      1.79500000	    -33.88030691	      5.67441348	     -4.19717290	     -0.34537313	      0.61067677	     -0.91451505	    106.78569950	    -22.28461128	     13.07866549	    104.86048167	      1.83016066	     32.12944406	      0.00000000	      0.00000000	    102.81556980	    -30.32937855	     -0.74258657	    106.18367719	      1.85325478	     38.51699061	      0.00000000	      0.00000000	    -17.44886420	     -6.55483608	      1.44461682	     16.52021716	    -53.04716014	     89.29316883	     88.61187527	     88.56903968	      0.00000000	      0.00000000	     17.09493715	    -58.69837824	     89.32447736	     95.99754914	     88.37511621	      0.00000000	      0.00000000
      1.80000000	    -33.94723795	      5.68098940	     -4.29939752	     -0.34506944	      0.61089512	     -0.91409154	    106.77226685	    -22.11693473	     13.03672630	    104.81282326	      1.82932886	     32.08633241	      0.00000000	      0.00000000	    102.84192501	    -30.44241676	     -0.70999097	    106.15230374	      1.85270721	     38.51131857	      0.00000000	      0.00000000	    -17.30889693	     -6.60061060	      1.55193246	     16.48333809	    -53.05905195	     89.29716909	     88.56274508	     88.56035329	      0.00000000	      0.00000000	     17.04395207	    -58.66293367	     89.33105576	     95.91372926	     88.26923679	      0.00000000	      0.00000000
      1.80500000	    -33.93298465	      5.68116955	     -4.33849372	     -0.34465156	      0.61138245	     -0.91381437	    106.65961691	    -22.04112969	     13.00634142	    104.76974153	      1.82857695	     32.18945115	      0.00000000	      0.00000000	    102.74122351	    -30.49302789	     -0.73050580	    106.11455487	      1.85204837	     38.65688645	      0.00000000	      0.00000000	    -17.28288379	     -6.63362662	      1.55621841	     16.50097050	    -53.07924788	     89.28642372	     88.62897601	     88.57759812	      0.00000000	      0.00000000	     16.99025542	    -58.67721519	     89.31049174	     95.93215984	     88.32003753	      0.00000000	      0.00000000
